<svg width="40" height="40" viewBox="0 0 40 40" fill="none" xmlns="http://www.w3.org/2000/svg">
<g clip-path="url(#clip0_28763_15090)">
<path d="M9.6 0H30.4C36.8 0 40 3.2 40 9.6V30.4C40 36.8 36.8 40 30.4 40H9.6C3.2 40 0 36.8 0 30.4V9.6C0 3.2 3.2 0 9.6 0Z" fill="#1D7EFF"/>
<path d="M11.9494 26.2657L11.9529 22.9722C11.9529 22.1497 12.6214 21.4812 13.4439 21.4812H17.8329C18.3264 21.4812 18.3229 21.0437 18.3229 20.0042C18.3229 18.9647 15.7049 18.0897 15.7049 14.4322C15.7014 10.7747 18.4174 9.7002 20.6714 9.7002C22.9254 9.7002 25.3824 10.7747 25.3824 14.4322C25.3824 18.0862 22.7784 18.6672 22.7784 20.0042C22.7784 21.3377 22.7784 21.4812 23.1949 21.4812H27.5594C28.3819 21.4812 29.0504 22.1497 29.0504 22.9722V26.2657H11.9494ZM28.4099 29.3002H12.5899C12.2084 29.3002 11.9004 28.9922 11.9004 28.6107C11.9004 28.2292 12.2084 27.9212 12.5899 27.9212H28.4099C28.7914 27.9212 29.0994 28.2292 29.0994 28.6107C29.0994 28.9922 28.7914 29.3002 28.4099 29.3002Z" fill="white"/>
</g>
<defs>
<clipPath id="clip0_28763_15090">
<rect width="40" height="40" fill="white"/>
</clipPath>
</defs>
</svg>
