<svg width="40" height="40" viewBox="0 0 40 40" fill="none" xmlns="http://www.w3.org/2000/svg">
<g clip-path="url(#clip0_28763_15068)">
<path d="M9.6 0H30.4C36.8 0 40 3.2 40 9.6V30.4C40 36.8 36.8 40 30.4 40H9.6C3.2 40 0 36.8 0 30.4V9.6C0 3.2 3.2 0 9.6 0Z" fill="#1D7EFF"/>
<g clip-path="url(#clip1_28763_15068)">
<path d="M10.0482 14.4994H29.9535C30.5642 14.4994 31.0327 14.9724 31.0001 15.5562L30.2869 28.2367C30.2543 28.8205 29.7702 29.2935 29.2054 29.2935H10.7966C10.2314 29.2935 9.74738 28.8205 9.71438 28.2367L9.00161 15.5562C8.96898 14.9724 9.43746 14.4994 10.0482 14.4994ZM11.6554 10.7061H16.0417C16.4014 10.706 16.7573 10.7791 17.0879 10.9208L19.1705 11.8133C19.2177 11.8336 19.2685 11.844 19.3199 11.8441H28.3462C28.4468 11.8441 28.5433 11.884 28.6144 11.9552C28.6856 12.0263 28.7256 12.1228 28.7256 12.2234V13.7407C28.7256 13.7906 28.7157 13.8399 28.6967 13.8859C28.6776 13.9319 28.6497 13.9737 28.6144 14.009C28.5792 14.0442 28.5374 14.0721 28.4914 14.0912C28.4454 14.1103 28.396 14.1201 28.3462 14.1201H11.6554C11.6056 14.1201 11.5563 14.1103 11.5103 14.0912C11.4643 14.0721 11.4224 14.0442 11.3872 14.009C11.352 13.9737 11.324 13.9319 11.305 13.8859C11.2859 13.8399 11.2761 13.7906 11.2761 13.7407V11.0854C11.2761 10.9848 11.3161 10.8883 11.3872 10.8172C11.4583 10.746 11.5548 10.7061 11.6554 10.7061Z" fill="white"/>
</g>
</g>
<defs>
<clipPath id="clip0_28763_15068">
<rect width="40" height="40" fill="white"/>
</clipPath>
<clipPath id="clip1_28763_15068">
<rect width="22" height="22" fill="white" transform="translate(9 9)"/>
</clipPath>
</defs>
</svg>
