<svg width="40" height="40" viewBox="0 0 40 40" fill="none" xmlns="http://www.w3.org/2000/svg">
<g clip-path="url(#clip0_28763_15086)">
<path d="M9.6 0H30.4C36.8 0 40 3.2 40 9.6V30.4C40 36.8 36.8 40 30.4 40H9.6C3.2 40 0 36.8 0 30.4V9.6C0 3.2 3.2 0 9.6 0Z" fill="#1D7EFF"/>
<path d="M27.5 10.2415V11.9688C27.5 13.0555 26.6598 13.9375 25.625 13.9375C24.5901 13.9375 23.75 13.0555 23.75 11.9688V10H16.25V11.9688C16.25 13.0555 15.41 13.9375 14.375 13.9375C13.3399 13.9375 12.4999 13.0555 12.4999 11.9688V10.2415C11.0462 10.7835 10 12.226 10 13.9375V27.0625C10 29.2372 11.6787 31 13.75 31H26.25C28.3212 31 30 29.2372 30 27.0625V13.9375C30 12.226 28.9525 10.7835 27.5 10.2415ZM27.5 27.0625C27.5 27.787 26.94 28.375 26.25 28.375H13.75C13.06 28.375 12.5002 27.787 12.5002 27.0625V15.5263H27.5V27.0625ZM22.5 23.125H25V25.75H22.5V23.125ZM22.5 19.1875H25V21.8125H22.5V19.1875ZM18.75 23.125H21.25V25.75H18.75V23.125ZM18.75 19.1875H21.25V21.8125H18.75V19.1875ZM15 23.125H17.5V25.75H15V23.125ZM15 19.1875H17.5V21.8125H15V19.1875ZM25.625 12.625C25.2802 12.625 25 12.331 25 11.9687V10H26.25V11.9688C26.25 12.331 25.9698 12.625 25.625 12.625ZM14.375 12.625C14.03 12.625 13.75 12.331 13.75 11.9687V10H14.9998V11.9688C15 12.331 14.72 12.625 14.375 12.625Z" fill="white"/>
</g>
<defs>
<clipPath id="clip0_28763_15086">
<rect width="40" height="40" fill="white"/>
</clipPath>
</defs>
</svg>
