<svg width="40" height="40" viewBox="0 0 40 40" fill="none" xmlns="http://www.w3.org/2000/svg">
<g clip-path="url(#clip0_28763_15106)">
<path d="M9.6 0H30.4C36.8 0 40 3.2 40 9.6V30.4C40 36.8 36.8 40 30.4 40H9.6C3.2 40 0 36.8 0 30.4V9.6C0 3.2 3.2 0 9.6 0Z" fill="#1D7EFF"/>
<path d="M14.9614 11.7178C15.2788 11.7178 15.5361 11.9714 15.5449 12.2875V12.5261H28.5821C29.0244 12.5261 29.3817 12.8809 29.3905 13.3207V13.3332C29.3904 13.5189 29.3264 13.6989 29.2093 13.843L26.7293 16.8964C26.697 16.9364 26.6794 16.9862 26.6794 17.0376C26.6794 17.089 26.697 17.1388 26.7293 17.1788L29.2093 20.2323C29.3053 20.3509 29.3657 20.4942 29.3837 20.6457C29.4016 20.7972 29.3763 20.9506 29.3107 21.0884C29.2451 21.2261 29.1419 21.3424 29.013 21.424C28.884 21.5055 28.7347 21.5489 28.5821 21.5491H15.5449V28H16.4544C16.6092 27.9983 16.7582 28.0582 16.8688 28.1665C16.9794 28.2747 17.0425 28.4225 17.0441 28.5772C17.0458 28.732 16.9859 28.881 16.8777 28.9916C16.7694 29.1022 16.6217 29.1653 16.4669 29.1669H13.4784C13.3237 29.1686 13.1746 29.1087 13.064 29.0004C12.9534 28.8922 12.8904 28.7444 12.8887 28.5897C12.887 28.435 12.9469 28.2859 13.0552 28.1753C13.1634 28.0647 13.3112 28.0017 13.4659 28H14.378V12.3012C14.378 11.9789 14.6403 11.7178 14.9627 11.7178H14.9614Z" fill="white"/>
</g>
<defs>
<clipPath id="clip0_28763_15106">
<rect width="40" height="40" fill="white"/>
</clipPath>
</defs>
</svg>
