<svg width="40" height="40" viewBox="0 0 40 40" fill="none" xmlns="http://www.w3.org/2000/svg">
<g clip-path="url(#clip0_28763_15118)">
<path d="M9.6 0H30.4C36.8 0 40 3.2 40 9.6V30.4C40 36.8 36.8 40 30.4 40H9.6C3.2 40 0 36.8 0 30.4V9.6C0 3.2 3.2 0 9.6 0Z" fill="#FEB302"/>
<g clip-path="url(#clip1_28763_15118)">
<path d="M31.1623 27.5824L28.258 24.7459L27.164 23.6526L27.6423 23.1737C27.8133 23.2421 27.9501 23.3447 28.1211 23.3447H28.2916C28.4626 23.3447 28.6678 23.2763 28.7704 23.1053L29.7953 22.0804C30.1032 21.7726 30.1032 21.2259 29.7953 20.8161L27.1982 18.2184C27.1298 17.9795 26.8904 17.9111 26.6516 17.9111C26.4122 17.9111 26.1727 17.9795 26.0365 18.15L25.011 19.1761C24.669 19.5181 24.669 19.9964 24.8058 20.3042L22.1403 22.9697C21.9693 22.9013 21.833 22.7987 21.662 22.7987C21.4226 22.7987 21.1838 22.8671 21.047 23.0375L20.0214 24.063C19.7142 24.3709 19.7142 24.9175 20.0214 25.3274L22.6185 27.925C22.7895 28.0955 22.9948 28.1639 23.2342 28.1639C23.473 28.1639 23.7125 28.0955 23.8493 27.925L24.8742 26.8995C25.182 26.5917 25.182 26.1819 25.0452 25.8062L25.5235 25.3274L28.36 28.1639L29.5223 29.3262C29.7611 29.565 30.0005 29.6334 30.3084 29.6334C30.6156 29.6334 30.8544 29.565 31.0945 29.3262L31.3333 29.0862C31.5727 28.7789 31.5727 28.0613 31.1623 27.583V27.5824Z" fill="white"/>
<path d="M26.6857 9.29883H12.5722C11.7177 9.29883 11 10.0165 11 10.871V28.1289C11 28.9834 11.7177 29.7011 12.5722 29.7011H26.6857C27.062 29.7011 27.404 29.5301 27.7119 29.3255L25.8997 27.5139C25.8318 27.5823 25.8318 27.6849 25.7292 27.7533L24.7043 28.7782C23.9182 29.5643 22.5855 29.5643 21.7994 28.7782L19.2017 26.1811C18.4156 25.395 18.4156 24.0623 19.2017 23.2768L20.2272 22.2507C20.6029 21.875 21.1843 21.6356 21.7994 21.6356L23.542 19.9956C23.5346 19.4115 23.7552 18.8475 24.1571 18.4234L25.1826 17.3979C25.9687 16.6118 27.3008 16.6118 28.0869 17.3979L28.2579 17.569V10.871C28.2585 10.6644 28.2182 10.4597 28.1394 10.2687C28.0606 10.0777 27.9448 9.90418 27.7987 9.75808C27.6526 9.61198 27.479 9.49619 27.288 9.41738C27.097 9.33857 26.8924 9.29828 26.6857 9.29883ZM13.3583 12.4432H18.0742C18.4498 12.4432 18.8603 12.8188 18.8603 13.2293C18.8603 13.6049 18.484 14.0154 18.0742 14.0154H13.3577C12.982 14.0154 12.5716 13.6391 12.5716 13.2293C12.5716 12.853 12.9478 12.4432 13.3577 12.4432H13.3583ZM16.5026 21.875H13.3583C12.982 21.875 12.5722 21.4994 12.5722 21.0889C12.5722 20.7133 12.9478 20.3029 13.3583 20.3029H16.5026C16.8783 20.3029 17.2887 20.6791 17.2887 21.0889C17.2887 21.4652 16.8783 21.875 16.5026 21.875ZM19.6464 17.9446H13.3577C12.982 17.9446 12.5716 17.569 12.5716 17.1585C12.5716 16.7829 12.9478 16.3724 13.3577 16.3724H19.6464C20.022 16.3724 20.4324 16.7487 20.4324 17.1585C20.4324 17.5347 20.022 17.9446 19.6464 17.9446Z" fill="white"/>
</g>
</g>
<defs>
<clipPath id="clip0_28763_15118">
<rect width="40" height="40" fill="white"/>
</clipPath>
<clipPath id="clip1_28763_15118">
<rect width="21" height="21" fill="white" transform="translate(11 9)"/>
</clipPath>
</defs>
</svg>
