<svg width="40" height="40" viewBox="0 0 40 40" fill="none" xmlns="http://www.w3.org/2000/svg">
<g clip-path="url(#clip0_28763_15100)">
<path d="M9.6 0H30.4C36.8 0 40 3.2 40 9.6V30.4C40 36.8 36.8 40 30.4 40H9.6C3.2 40 0 36.8 0 30.4V9.6C0 3.2 3.2 0 9.6 0Z" fill="#FEB302"/>
<g clip-path="url(#clip1_28763_15100)">
<path d="M22.9126 20.1671C21.1647 21.3665 20.0068 23.3731 20.0068 25.6631C20.0068 26.8845 20.3347 28.0187 20.9025 29H10.7429C10.3276 29 10 28.651 10 28.1931V27.1898C10 27.1245 10.0217 27.0373 10.0437 26.9501C10.2622 26.2741 10.7209 25.685 11.4203 25.1616C11.9665 24.769 12.6437 24.42 13.4522 24.1366C14.6975 23.7004 16.0085 23.5259 16.4455 23.4823C16.4672 23.4823 16.4237 22.3481 16.4455 22.3262C16.4455 22.3262 16.4455 21.9119 16.2053 21.6499C16.2053 21.6499 16.2053 21.6283 16.1835 21.6283C15.4624 21.0176 14.8508 20.1671 14.4139 19.1418C14.3921 19.1202 14.3702 19.0982 14.3484 19.0982C13.7147 19.011 13.1466 18.3347 12.9501 17.4406C12.7316 16.459 12.9718 15.5213 13.5619 15.1506C13.5836 15.1287 13.6056 15.107 13.6056 15.0634C13.5838 13.1877 14.0208 11.6828 14.9602 10.614C16.1181 9.28367 17.735 9 18.9148 9C20.0727 9 21.7116 9.28367 22.9132 10.6576C23.8308 11.7262 24.2898 13.2093 24.2678 15.1067C24.2678 15.1284 24.2898 15.1723 24.3115 15.194C24.8796 15.5646 25.1418 16.4807 24.9233 17.484C24.7265 18.3781 24.1367 19.0543 23.525 19.1416C23.5032 19.1416 23.4593 19.1632 23.4593 19.1852C23.2842 19.5344 23.1092 19.8617 22.9126 20.1671Z" fill="white"/>
<path d="M26.9999 31C24.2271 31 22 28.7512 22 26C22 23.2271 24.2488 21 26.9999 21C29.751 21 31.9998 23.2488 31.9998 26C32.0215 28.7729 29.7727 31 26.9999 31ZM29.096 25.3013H27.7206V23.9256C27.7206 23.5326 27.4149 23.2269 27.0219 23.2269C26.6289 23.2269 26.3232 23.5326 26.3232 23.9256V25.3013H24.9258C24.5328 25.3013 24.2271 25.607 24.2271 26C24.2271 26.393 24.5328 26.6987 24.9258 26.6987H26.3232V28.0961C26.3232 28.4891 26.6289 28.7948 27.0219 28.7948C27.4149 28.7948 27.7206 28.4891 27.7206 28.0961V26.6987H29.096C29.489 26.6987 29.7947 26.393 29.7947 26C29.7947 25.607 29.489 25.3013 29.096 25.3013Z" fill="white"/>
</g>
</g>
<defs>
<clipPath id="clip0_28763_15100">
<rect width="40" height="40" fill="white"/>
</clipPath>
<clipPath id="clip1_28763_15100">
<rect width="22" height="22" fill="white" transform="translate(10 9)"/>
</clipPath>
</defs>
</svg>
