<svg width="40" height="40" viewBox="0 0 40 40" fill="none" xmlns="http://www.w3.org/2000/svg">
<rect width="40" height="40" rx="8" fill="#1D7EFF"/>
<g clip-path="url(#clip0_28763_15078)">
<path d="M22.5805 31.5886H11.6673C9.94029 31.5832 8.54353 30.1811 8.54493 28.4541V10.6449C8.54226 8.91682 9.93926 7.51279 11.6673 7.50684H25.5198C27.2472 7.51213 28.6442 8.91509 28.6421 10.6425V18.6416C25.2118 17.6162 21.5479 19.2578 20.0297 22.5004C18.5116 25.743 19.5972 29.6083 22.5817 31.5862L22.5805 31.5886ZM25.315 17.3953C25.3157 16.8944 24.9105 16.4875 24.4096 16.4861H12.7775C12.2754 16.4861 11.8684 16.8932 11.8684 17.3953C11.8684 17.8973 12.2754 18.3045 12.7775 18.3045H24.4096C24.9105 18.3031 25.3158 17.8962 25.315 17.3953ZM19.4208 22.6105C19.54 22.6107 19.6582 22.5873 19.7683 22.5416C19.8785 22.4959 19.9786 22.4288 20.0627 22.3443C20.1469 22.2598 20.2135 22.1595 20.2588 22.0492C20.304 21.9388 20.327 21.8206 20.3263 21.7014C20.3263 21.2009 19.9213 20.7947 19.4208 20.7934H12.7787C12.2767 20.7934 11.8696 21.2004 11.8696 21.7026C11.8696 22.2046 12.2767 22.6117 12.7787 22.6117H19.422L19.4208 22.6105ZM12.7763 13.9972H24.4083C24.9105 13.9972 25.3175 13.5902 25.3175 13.088C25.3175 12.5859 24.9105 12.179 24.4083 12.179H12.7763C12.2742 12.179 11.8671 12.5859 11.8671 13.088C11.8671 13.5902 12.2742 13.9972 12.7763 13.9972ZM12.7787 25.1031C12.2767 25.1031 11.8696 25.5101 11.8696 26.0122C11.8696 26.5143 12.2767 26.9213 12.7787 26.9213H17.3894C17.8915 26.9213 18.2986 26.5143 18.2986 26.0122C18.2986 25.5101 17.8915 25.103 17.3894 25.103H12.7775H12.7787V25.1031Z" fill="white"/>
<path d="M26.518 19.3799C23.1669 19.3799 20.4395 22.1181 20.4395 25.4848C20.4395 28.8505 23.1669 31.5887 26.518 31.5887C29.8704 31.5887 32.599 28.8505 32.599 25.4836C32.599 22.1181 29.8704 19.3799 26.518 19.3799ZM30.7855 25.4848C30.7855 27.8473 28.871 29.7692 26.518 29.7692C24.1664 29.7692 22.253 27.8473 22.253 25.4836C22.253 23.1212 24.1664 21.1994 26.518 21.1994C28.871 21.1994 30.7855 23.1212 30.7855 25.4836V25.4848Z" fill="white"/>
<path d="M28.4594 25.801H26.8579V23.3613C26.8585 22.8604 26.4534 22.4535 25.9523 22.4521C25.4514 22.4535 25.0462 22.8604 25.0469 23.3613V26.4162C25.0469 26.7356 25.1737 27.0418 25.3995 27.2677C25.6254 27.4935 25.9317 27.6204 26.2511 27.6204H28.4595C28.9615 27.6204 29.3685 27.2135 29.3685 26.7112C29.3685 26.2091 28.9615 25.8022 28.4595 25.8022V25.801H28.4594Z" fill="white"/>
</g>
<defs>
<clipPath id="clip0_28763_15078">
<rect width="25" height="25" fill="white" transform="translate(8 7)"/>
</clipPath>
</defs>
</svg>
