<svg width="40" height="40" viewBox="0 0 40 40" fill="none" xmlns="http://www.w3.org/2000/svg">
<rect width="40" height="40" rx="8" fill="#1D7EFF"/>
<path d="M19.7812 8C14.9332 8 11.0002 11.978 11.0002 16.883C10.9906 18.5134 11.4329 20.1147 12.2781 21.509C13.1233 22.9033 14.3382 24.0362 15.7882 24.782V26.225C15.7882 27.1235 16.5097 27.845 17.3932 27.845H22.1827C22.3945 27.8442 22.604 27.8017 22.7994 27.7198C22.9947 27.6379 23.172 27.5183 23.3211 27.3678C23.4702 27.2174 23.5881 27.039 23.6682 26.8429C23.7482 26.6468 23.7888 26.4368 23.7877 26.225V24.7805C25.2375 24.0349 26.4525 22.9023 27.2979 21.5083C28.1433 20.1143 28.5861 18.5133 28.5772 16.883C28.5622 11.9915 24.6292 8 19.7812 8ZM18.3412 13.865H23.2342C23.2851 13.8647 23.3353 13.8777 23.3797 13.9028C23.4241 13.9279 23.4612 13.9641 23.4872 14.0079C23.5133 14.0517 23.5275 14.1016 23.5283 14.1525C23.5292 14.2035 23.5167 14.2538 23.4922 14.2985L22.6372 15.8795C22.6259 15.9007 22.62 15.9244 22.62 15.9485C22.62 15.9726 22.6259 15.9963 22.6372 16.0175L23.4982 17.642C23.5341 17.7094 23.5422 17.7882 23.5206 17.8614C23.4989 17.9346 23.4494 17.9964 23.3827 18.0335C23.3387 18.0581 23.2891 18.0711 23.2387 18.071H18.3412V20.705C18.3351 20.7998 18.2932 20.8887 18.224 20.9537C18.1548 21.0187 18.0634 21.0548 17.9684 21.0548C17.8734 21.0548 17.782 21.0187 17.7128 20.9537C17.6436 20.8887 17.6017 20.7998 17.5957 20.705V13.865H18.3412ZM21.5782 30.1295H17.9842C17.8745 30.1293 17.7659 30.151 17.6647 30.1933C17.5635 30.2356 17.4718 30.2977 17.395 30.376C17.3181 30.4542 17.2577 30.547 17.2172 30.6489C17.1767 30.7509 17.157 30.8598 17.1592 30.9695V31.16C17.1592 31.6175 17.5267 32 17.9842 32H21.5932C21.7026 31.9994 21.8108 31.9772 21.9116 31.9346C22.0125 31.892 22.1038 31.8298 22.1805 31.7517C22.2572 31.6737 22.3177 31.5812 22.3585 31.4796C22.3993 31.3781 22.4195 31.2694 22.4182 31.16V30.9695C22.4182 30.8592 22.3964 30.75 22.3542 30.648C22.312 30.5461 22.2501 30.4535 22.1721 30.3755C22.0941 30.2975 22.0015 30.2357 21.8996 30.1934C21.7977 30.1512 21.6885 30.1295 21.5782 30.1295ZM22.9492 28.052H16.6132C16.5037 28.0524 16.3953 28.0745 16.2944 28.117C16.1935 28.1596 16.1021 28.2217 16.0253 28.2998C15.9486 28.3779 15.8881 28.4705 15.8474 28.5721C15.8067 28.6738 15.7866 28.7825 15.7882 28.892V29.0825C15.7882 29.54 16.1572 29.9225 16.6132 29.9225H22.9492C23.0586 29.9219 23.1668 29.8997 23.2676 29.8571C23.3685 29.8145 23.4598 29.7523 23.5365 29.6742C23.6132 29.5962 23.6737 29.5037 23.7145 29.4021C23.7553 29.3006 23.7755 29.1919 23.7742 29.0825V28.877C23.7742 28.6582 23.6872 28.4484 23.5325 28.2936C23.3778 28.1389 23.168 28.052 22.9492 28.052Z" fill="white"/>
</svg>
