<svg width="40" height="40" viewBox="0 0 40 40" fill="none" xmlns="http://www.w3.org/2000/svg">
<g clip-path="url(#clip0_28763_15094)">
<path d="M9.6 0H30.4C36.8 0 40 3.2 40 9.6V30.4C40 36.8 36.8 40 30.4 40H9.6C3.2 40 0 36.8 0 30.4V9.6C0 3.2 3.2 0 9.6 0Z" fill="#1D7EFF"/>
<path d="M29.1803 27.0651H26.1327C26.0327 27.0651 25.9336 27.0502 25.8412 27.0211C25.7487 26.9921 25.6647 26.9496 25.594 26.8959C25.5232 26.8423 25.4671 26.7787 25.4288 26.7086C25.3905 26.6385 25.3708 26.5634 25.3708 26.4876V26.141C25.3716 26.027 25.4168 25.9157 25.5009 25.8211C25.585 25.7266 25.7041 25.653 25.8432 25.6097C26.5899 25.3912 27.2123 24.9817 27.6025 24.4519C27.9927 23.9221 28.1261 23.3056 27.9795 22.7091C27.833 22.1126 27.4157 21.5738 26.8001 21.186C26.1845 20.7982 25.4093 20.5859 24.6089 20.5859C23.8085 20.5859 23.0333 20.7982 22.4177 21.186C21.8021 21.5738 21.3848 22.1126 21.2383 22.7091C21.0917 23.3056 21.2251 23.9221 21.6153 24.4519C22.0055 24.9817 22.6279 25.3912 23.3746 25.6097C23.5138 25.653 23.6329 25.7266 23.7169 25.8211C23.801 25.9157 23.8463 26.027 23.847 26.141V26.4876C23.847 26.5634 23.8273 26.6385 23.789 26.7086C23.7507 26.7787 23.6946 26.8423 23.6238 26.8959C23.5531 26.9496 23.4691 26.9921 23.3767 27.0211C23.2842 27.0502 23.1852 27.0651 23.0851 27.0651H19.2756C19.1755 27.0651 19.0764 27.0801 18.984 27.1091C18.8916 27.1381 18.8076 27.1806 18.7368 27.2343C18.6661 27.2879 18.61 27.3516 18.5717 27.4216C18.5334 27.4917 18.5137 27.5668 18.5137 27.6427V29.3753C18.5137 29.4512 18.5334 29.5263 18.5717 29.5964C18.61 29.6664 18.6661 29.7301 18.7368 29.7837C18.8076 29.8374 18.8916 29.8799 18.984 29.9089C19.0764 29.9379 19.1755 29.9529 19.2756 29.9529H29.1803C29.3824 29.9529 29.5762 29.892 29.7191 29.7837C29.862 29.6754 29.9422 29.5285 29.9422 29.3753V27.6427C29.9422 27.4895 29.862 27.3426 29.7191 27.2343C29.5762 27.126 29.3824 27.0651 29.1803 27.0651Z" fill="white"/>
<path d="M28.5185 10.0479H11.4815C11.0886 10.0479 10.7117 10.1712 10.4339 10.3908C10.1561 10.6104 10 10.9082 10 11.2187V28.7817C10 29.0923 10.1561 29.3901 10.4339 29.6097C10.7117 29.8293 11.0886 29.9526 11.4815 29.9526H17.4074V27.6109C17.4074 27.1451 17.6415 26.6984 18.0583 26.369C18.475 26.0396 19.0403 25.8546 19.6296 25.8546H20.6667C20.7361 25.8543 20.804 25.8387 20.8627 25.8093C20.9215 25.78 20.9686 25.7383 20.9987 25.6888C21.0288 25.6394 21.0407 25.5843 21.0331 25.5297C21.0255 25.4752 20.9986 25.4234 20.9556 25.3804C20.5248 24.9233 20.2294 24.3957 20.0913 23.8363C19.9531 23.277 19.9757 22.7003 20.1573 22.1487C20.3389 21.5972 20.675 21.085 21.1406 20.6498C21.6063 20.2147 22.1897 19.8678 22.8477 19.6347C23.5057 19.4016 24.2216 19.2883 24.9424 19.3032C25.6632 19.318 26.3706 19.4606 27.0124 19.7205C27.6542 19.9804 28.2139 20.3509 28.6502 20.8046C29.0865 21.2583 29.3883 21.7837 29.5333 22.342C29.5333 22.3909 29.5579 22.4378 29.6017 22.4724C29.6454 22.507 29.7048 22.5264 29.7667 22.5264C29.8286 22.5264 29.8879 22.507 29.9317 22.4724C29.9754 22.4378 30 22.3909 30 22.342V11.2187C30 10.9082 29.8439 10.6104 29.5661 10.3908C29.2883 10.1712 28.9114 10.0479 28.5185 10.0479ZM19.4444 18.8294H15C14.8035 18.8294 14.6151 18.7677 14.4762 18.6579C14.3373 18.5481 14.2593 18.3992 14.2593 18.2439C14.2593 18.167 14.2784 18.0909 14.3156 18.0199C14.3529 17.9489 14.4074 17.8843 14.4762 17.83C14.545 17.7756 14.6267 17.7325 14.7165 17.7031C14.8064 17.6736 14.9027 17.6585 15 17.6585H19.4444C19.5417 17.6585 19.638 17.6736 19.7279 17.7031C19.8178 17.7325 19.8994 17.7756 19.9682 17.83C20.037 17.8843 20.0916 17.9489 20.1288 18.0199C20.166 18.0909 20.1852 18.167 20.1852 18.2439C20.1852 18.3208 20.166 18.3969 20.1288 18.468C20.0916 18.539 20.037 18.6035 19.9682 18.6579C19.8994 18.7123 19.8178 18.7554 19.7279 18.7848C19.638 18.8142 19.5417 18.8294 19.4444 18.8294ZM23.8889 15.9022H15C14.8035 15.9022 14.6151 15.8405 14.4762 15.7307C14.3373 15.6209 14.2593 15.472 14.2593 15.3168C14.2593 15.1615 14.3373 15.0126 14.4762 14.9028C14.6151 14.793 14.8035 14.7313 15 14.7313H23.8889C23.9862 14.7313 24.0825 14.7465 24.1724 14.7759C24.2622 14.8053 24.3439 14.8484 24.4127 14.9028C24.4815 14.9572 24.536 15.0217 24.5732 15.0927C24.6105 15.1638 24.6296 15.2399 24.6296 15.3168C24.6296 15.3936 24.6105 15.4698 24.5732 15.5408C24.536 15.6118 24.4815 15.6764 24.4127 15.7307C24.3439 15.7851 24.2622 15.8282 24.1724 15.8576C24.0825 15.8871 23.9862 15.9022 23.8889 15.9022Z" fill="white"/>
</g>
<defs>
<clipPath id="clip0_28763_15094">
<rect width="40" height="40" fill="white"/>
</clipPath>
</defs>
</svg>
