<svg width="40" height="40" viewBox="0 0 40 40" fill="none" xmlns="http://www.w3.org/2000/svg">
<g clip-path="url(#clip0_28763_15075)">
<path d="M9.6 0H30.4C36.8 0 40 3.2 40 9.6V30.4C40 36.8 36.8 40 30.4 40H9.6C3.2 40 0 36.8 0 30.4V9.6C0 3.2 3.2 0 9.6 0Z" fill="#1D7EFF"/>
<path d="M27.2016 9C27.9443 9.00023 28.6565 9.29544 29.1817 9.82072C29.7068 10.346 30.0017 11.0583 30.0017 11.8011V27.2003C30.0017 27.568 29.9293 27.9321 29.7886 28.2718C29.6479 28.6115 29.4416 28.9201 29.1816 29.1801C28.9215 29.4401 28.6129 29.6463 28.2731 29.787C27.9334 29.9277 27.5693 30.0001 27.2016 30H13.9012C13.5334 30.0001 13.1692 29.9278 12.8294 29.7871C12.4896 29.6465 12.1809 29.4403 11.9207 29.1803C11.6606 28.9203 11.4543 28.6116 11.3135 28.2719C11.1727 27.9322 11.1002 27.568 11.1001 27.2003V24.7497H10.0501C9.77157 24.7497 9.50448 24.639 9.30756 24.4421C9.11063 24.2452 9 23.9781 9 23.6996C9 23.4211 9.11063 23.154 9.30756 22.9571C9.50448 22.7602 9.77157 22.6495 10.0501 22.6495H11.1001V16.3491H10.0501C9.91217 16.3491 9.77562 16.322 9.64822 16.2692C9.52082 16.2164 9.40507 16.1391 9.30756 16.0416C9.21005 15.9441 9.1327 15.8283 9.07993 15.7009C9.02716 15.5735 9 15.437 9 15.2991C9 15.1612 9.02716 15.0246 9.07993 14.8972C9.1327 14.7698 9.21005 14.6541 9.30756 14.5566C9.40507 14.4591 9.52082 14.3817 9.64822 14.3289C9.77562 14.2762 9.91217 14.249 10.0501 14.249H11.1001V11.8011C11.1004 11.0582 11.3955 10.3459 11.9208 9.82066C12.446 9.29542 13.1584 9.00023 13.9012 9H27.2016ZM21.5999 17.6617H18.77C18.659 17.6614 18.5512 17.6985 18.464 17.7671C18.3768 17.8357 18.3153 17.9318 18.2896 18.0398L16.893 23.9227C16.8656 24.0383 16.8716 24.1593 16.9104 24.2716C16.9493 24.3839 17.0192 24.4828 17.1122 24.5567L19.7636 26.6621C19.873 26.7488 20.0083 26.7964 20.1479 26.7974C20.2876 26.7984 20.4235 26.7526 20.5341 26.6674L23.2065 24.6092C23.3013 24.5362 23.3732 24.4376 23.4137 24.325C23.4541 24.2124 23.4615 24.0906 23.4349 23.9739L22.079 18.0437C22.0541 17.9352 21.9931 17.8384 21.9061 17.7691C21.8191 17.6997 21.7112 17.6619 21.5999 17.6617ZM22.3262 13.594H17.9947C17.9125 13.5938 17.8316 13.6137 17.7589 13.6522C17.6863 13.6907 17.6243 13.7464 17.5784 13.8145C17.5325 13.8827 17.504 13.9611 17.4956 14.0428C17.4871 14.1245 17.499 14.2071 17.53 14.2831L18.2651 16.1024C18.3018 16.1937 18.3651 16.272 18.4467 16.327C18.5284 16.382 18.6247 16.4112 18.7232 16.4108H21.6397C21.7395 16.4107 21.8368 16.3802 21.9188 16.3235C22.0009 16.2668 22.0638 16.1864 22.0991 16.0932L22.7922 14.2726C22.821 14.1969 22.831 14.1153 22.8213 14.0348C22.8117 13.9544 22.7826 13.8774 22.7366 13.8107C22.6907 13.7439 22.6292 13.6894 22.5575 13.6516C22.4858 13.6139 22.4059 13.5941 22.3249 13.594H22.3262Z" fill="white"/>
</g>
<defs>
<clipPath id="clip0_28763_15075">
<rect width="40" height="40" fill="white"/>
</clipPath>
</defs>
</svg>
