<svg width="40" height="40" viewBox="0 0 40 40" fill="none" xmlns="http://www.w3.org/2000/svg">
<g clip-path="url(#clip0_28763_15131)">
<path d="M9.6 0H30.4C36.8 0 40 3.2 40 9.6V30.4C40 36.8 36.8 40 30.4 40H9.6C3.2 40 0 36.8 0 30.4V9.6C0 3.2 3.2 0 9.6 0Z" fill="#FEB302"/>
<g clip-path="url(#clip1_28763_15131)">
<path d="M31.8407 30.648L30.6359 31.831C30.5284 31.9358 30.3842 31.9945 30.2341 31.9945C30.0839 31.9945 29.9397 31.9358 29.8322 31.831L27.4238 29.4643C27.3711 29.413 27.3292 29.3517 27.3006 29.2839C27.272 29.2161 27.2573 29.1433 27.2573 29.0698C27.2573 28.9962 27.272 28.9234 27.3006 28.8557C27.3292 28.7879 27.3711 28.7265 27.4238 28.6752L28.628 27.4916C28.7355 27.3868 28.8797 27.3281 29.0298 27.3281C29.18 27.3281 29.3242 27.3868 29.4316 27.4916L31.8407 29.8589C31.8932 29.9103 31.935 29.9717 31.9635 30.0394C31.992 30.1072 32.0067 30.1799 32.0067 30.2534C32.0067 30.3269 31.992 30.3997 31.9635 30.4675C31.935 30.5352 31.8932 30.5966 31.8407 30.648ZM12.1641 27.097C11.1639 26.1216 10.369 24.9558 9.82625 23.6684C9.28351 22.381 9.00391 20.998 9.00391 19.6009C9.00391 18.2038 9.28351 16.8208 9.82625 15.5334C10.369 14.246 11.1639 13.0803 12.1641 12.1048C16.3783 7.96507 23.2096 7.96507 27.4238 12.1048C28.424 13.0803 29.2189 14.246 29.7617 15.5334C30.3044 16.8208 30.584 18.2038 30.584 19.6009C30.584 20.998 30.3044 22.381 29.7617 23.6684C29.2189 24.9558 28.424 26.1216 27.4238 27.097C23.2096 31.2368 16.3783 31.2368 12.1641 27.097ZM17.7652 25.1836H25.4698V24.009H23.5667C24.0901 22.6045 24.5204 21.0717 24.8574 19.4118L23.6599 19.1183C23.2702 21.0765 22.826 22.7062 22.3298 24.009H17.7652V25.1836ZM21.2121 22.872L22.3558 22.5785C22.0811 21.1994 21.7839 20.0121 21.4644 19.0167L20.3867 19.3483C20.7322 20.5052 21.0078 21.6819 21.2121 22.872ZM19.4687 19.4633L18.3776 19.8209C18.7506 21.0159 19.0571 22.2307 19.2956 23.4596L20.4 23.1788C20.1628 21.9231 19.8518 20.6824 19.4687 19.4633ZM17.686 16.1562H16.4218V13.7683H15.1843V16.1562H13.6273V17.318H15.1571C14.7583 18.8418 14.1332 20.187 13.2812 21.3531L13.8264 22.6935C14.3749 21.7751 14.8298 20.8041 15.1843 19.7949V25.4771H16.4218V19.0929C16.6784 19.5014 16.9713 20.0121 17.2999 20.6251L18.0182 19.5909C17.5182 18.9873 16.9852 18.4118 16.4218 17.8669V17.318H17.686V16.1562ZM22.17 13.781H20.9991C20.1737 15.4839 18.9937 16.8581 17.459 17.905L18.1386 18.9271C18.6451 18.5806 19.1212 18.1917 19.5619 17.7646V18.4799H23.6865V17.8034C24.1265 18.2048 24.5933 18.5758 25.0837 18.9138L25.776 17.8923C24.0635 16.7093 22.8617 15.3386 22.17 13.781ZM21.5842 14.981C22.0135 15.8501 22.5697 16.6506 23.2345 17.3562H19.948C20.5598 16.6754 21.105 15.8839 21.5842 14.981Z" fill="white"/>
</g>
</g>
<defs>
<clipPath id="clip0_28763_15131">
<rect width="40" height="40" fill="white"/>
</clipPath>
<clipPath id="clip1_28763_15131">
<rect width="23" height="23" fill="white" transform="translate(9 9)"/>
</clipPath>
</defs>
</svg>
