<svg width="40" height="40" viewBox="0 0 40 40" fill="none" xmlns="http://www.w3.org/2000/svg">
<g clip-path="url(#clip0_28763_15110)">
<path d="M9.6 0H30.4C36.8 0 40 3.2 40 9.6V30.4C40 36.8 36.8 40 30.4 40H9.6C3.2 40 0 36.8 0 30.4V9.6C0 3.2 3.2 0 9.6 0Z" fill="#1D7EFF"/>
<g clip-path="url(#clip1_28763_15110)">
<path d="M10.5 23.671H12.43C12.5626 23.671 12.6898 23.6183 12.7836 23.5246C12.8773 23.4308 12.93 23.3036 12.93 23.171V22.7225C12.93 22.5899 12.8773 22.4627 12.7836 22.3689C12.6898 22.2752 12.5626 22.2225 12.43 22.2225H10.5C10.3674 22.2225 10.2402 22.1698 10.1464 22.0761C10.0527 21.9823 10 21.8551 10 21.7225V20.8375C10 20.7718 10.0129 20.7068 10.0381 20.6462C10.0632 20.5855 10.1 20.5304 10.1464 20.4839C10.1929 20.4375 10.248 20.4007 10.3087 20.3756C10.3693 20.3504 10.4343 20.3375 10.5 20.3375H12.43C12.5626 20.3375 12.6898 20.2848 12.7836 20.1911C12.8773 20.0973 12.93 19.9701 12.93 19.8375V19.3888C12.93 19.2561 12.8773 19.129 12.7836 19.0352C12.6898 18.9414 12.5626 18.8887 12.43 18.8887H10.5C10.3674 18.8887 10.2402 18.8361 10.1464 18.7423C10.0527 18.6485 10 18.5214 10 18.3887V17.5042C10 17.4386 10.0129 17.3736 10.0381 17.3129C10.0632 17.2522 10.1 17.1971 10.1464 17.1507C10.1929 17.1043 10.248 17.0674 10.3087 17.0423C10.3693 17.0172 10.4343 17.0043 10.5 17.0043H12.43C12.5626 17.0043 12.6898 16.9516 12.7836 16.8578C12.8773 16.764 12.93 16.6369 12.93 16.5043V16.0553C12.93 15.9896 12.9171 15.9246 12.8919 15.8639C12.8668 15.8032 12.83 15.7481 12.7836 15.7017C12.7371 15.6553 12.682 15.6184 12.6213 15.5933C12.5607 15.5682 12.4957 15.5553 12.43 15.5553H10.5C10.3674 15.5553 10.2402 15.5026 10.1464 15.4088C10.0527 15.315 10 15.1879 10 15.0552V12.7777C10 11.2435 11.2437 10 12.7777 10H27C28.6568 10 30 11.3433 30 13V27C30 28.6568 28.6568 30 27 30H13C11.3433 30 10 28.6568 10 27V24.171C10 24.0384 10.0527 23.9112 10.1464 23.8174C10.2402 23.7237 10.3674 23.671 10.5 23.671Z" fill="white"/>
<path d="M17.536 13.2876L18.136 12.7676C18.448 13.0556 18.816 13.4076 19.232 13.8316C19.648 14.2556 19.992 14.6236 20.264 14.9356L19.712 15.5836L19.328 15.1436L16.008 15.2636C15.096 15.2956 14.344 15.3356 13.76 15.3916L13.544 14.4796C13.904 14.4156 14.048 14.3516 14.232 14.2156C14.488 14.0316 14.84 13.6956 15.28 13.2236C15.728 12.7516 16.064 12.3356 16.296 11.9916L17.08 12.4236C16.816 12.7836 16.504 13.1596 16.144 13.5516C15.784 13.9436 15.488 14.2316 15.264 14.3996L18.528 14.2876C18.08 13.8156 17.752 13.4876 17.536 13.2876ZM15.056 19.0716V19.3996H14.168V15.9516H19.512V19.3996H18.624V19.0716H15.056ZM15.056 18.2636H18.624V16.7996H15.056V18.2636ZM28.235 15.9116H26.827C27.075 17.0556 27.603 17.8396 28.531 18.6156L27.867 19.2076C26.939 18.3676 26.371 17.3596 26.075 15.9116H25.667V18.2316L26.587 17.7916L26.635 18.6476C26.371 18.7516 25.995 18.9436 25.515 19.2076L25.083 19.4476L24.675 18.6796C24.867 18.5516 24.891 18.4476 24.891 18.2956V15.9116H24.459V15.1276H24.891V12.1996L25.667 12.2396V14.0316C25.995 13.8156 26.331 13.5676 26.675 13.2876C27.019 12.9996 27.315 12.7196 27.547 12.4476L28.091 13.1436C27.827 13.4076 27.507 13.6876 27.139 13.9836C26.779 14.2796 26.435 14.5356 26.115 14.7596L25.667 14.0876V15.1276H28.235V15.9116ZM23.611 17.2156V13.2476H22.259V17.2476H21.531V12.4876H24.339V17.2156H23.611ZM22.595 13.6396L23.307 13.6716V16.2236C23.275 17.7516 22.947 18.3436 21.707 19.4476L21.171 18.7596C22.363 17.8076 22.579 17.3596 22.595 16.0156V13.6396ZM23.019 17.9676L23.515 17.4396C23.939 17.8156 24.195 18.0716 24.507 18.4636L24.067 19.1276C23.691 18.6476 23.347 18.2636 23.019 17.9676Z" fill="#1D7EFF"/>
</g>
</g>
<defs>
<clipPath id="clip0_28763_15110">
<rect width="40" height="40" fill="white"/>
</clipPath>
<clipPath id="clip1_28763_15110">
<rect width="20" height="20" fill="white" transform="translate(10 10)"/>
</clipPath>
</defs>
</svg>
