<svg width="40" height="40" viewBox="0 0 40 40" fill="none" xmlns="http://www.w3.org/2000/svg">
<g clip-path="url(#clip0_28763_15141)">
<path d="M9.6 0H30.4C36.8 0 40 3.2 40 9.6V30.4C40 36.8 36.8 40 30.4 40H9.6C3.2 40 0 36.8 0 30.4V9.6C0 3.2 3.2 0 9.6 0Z" fill="#30D758"/>
<path d="M22.5963 22.8H29.5363V24.86H22.5963V29.04H20.4763V24.86H11.8763V22.8H14.6563V17.48H20.4763V14.74H16.4763C15.5763 16.16 14.4763 17.58 13.1763 18.98L11.7963 17.1C13.6363 15.34 15.1363 13.08 16.0963 10.76L18.2163 11.4L17.6363 12.66H28.6363V14.74H22.5963V17.48H28.1163V19.52H22.5963V22.8ZM20.4763 19.52H16.7963V22.8H20.4763V19.52Z" fill="white"/>
</g>
<defs>
<clipPath id="clip0_28763_15141">
<rect width="40" height="40" fill="white"/>
</clipPath>
</defs>
</svg>
