<svg width="40" height="40" viewBox="0 0 40 40" fill="none" xmlns="http://www.w3.org/2000/svg">
<g clip-path="url(#clip0_28763_15072)">
<path d="M9.6 0H30.4C36.8 0 40 3.2 40 9.6V30.4C40 36.8 36.8 40 30.4 40H9.6C3.2 40 0 36.8 0 30.4V9.6C0 3.2 3.2 0 9.6 0Z" fill="#30D758"/>
<path d="M16.3763 14.18L14.7963 15.84C14.5363 15.38 14.1363 14.76 13.5763 14.02C13.0363 13.28 12.5563 12.7 12.1363 12.28L13.7963 10.96C14.1763 11.36 14.6363 11.88 15.1363 12.52C15.6363 13.14 16.0563 13.7 16.3763 14.18ZM23.6163 13.9V20.76H28.7963V22.9H23.6163V28.98H21.4562V22.9H16.4363V20.76H21.4562V13.9H17.1363V11.82H27.8963V13.9H23.6163ZM26.0363 19.76L24.1563 19.04C24.5363 18.46 24.9363 17.72 25.3563 16.84C25.7763 15.96 26.0963 15.22 26.2763 14.62L27.9763 15.42C27.7763 16.04 27.4763 16.78 27.0963 17.66C26.7163 18.52 26.3563 19.22 26.0363 19.76ZM17.0963 15.62L18.8163 14.76C19.1163 15.24 19.4763 15.9 19.8963 16.74C20.3163 17.58 20.6563 18.3 20.9163 18.9L19.1763 20.02C18.9963 19.44 18.6963 18.7 18.2763 17.84C17.8563 16.98 17.4763 16.24 17.0963 15.62ZM15.3563 16.9V24.76C15.9963 24.3 16.6963 23.74 16.9363 23.42L17.8363 25.42L16.0563 26.9L14.2363 28.48L12.8963 26.96C13.2363 26.66 13.2563 26.38 13.2563 25.6V19.1H11.3563V16.9H15.3563Z" fill="white"/>
</g>
<defs>
<clipPath id="clip0_28763_15072">
<rect width="40" height="40" fill="white"/>
</clipPath>
</defs>
</svg>
