<svg width="40" height="40" viewBox="0 0 40 40" fill="none" xmlns="http://www.w3.org/2000/svg">
<g clip-path="url(#clip0_28763_15138)">
<path d="M9.6 0H30.4C36.8 0 40 3.2 40 9.6V30.4C40 36.8 36.8 40 30.4 40H9.6C3.2 40 0 36.8 0 30.4V9.6C0 3.2 3.2 0 9.6 0Z" fill="#30D758"/>
<path d="M27.0763 20.5V21.6L22.3563 23.28V23.44H29.0563V25.28H22.3563V26.78C22.2763 28.62 21.9563 28.82 19.6563 29.04L18.0763 29.16L17.4563 27.2L18.9363 27.1C19.8363 27.04 20.1163 26.84 20.1163 26.2V25.28H12.9163V23.44H20.1163V22.74L22.8363 21.58H15.4963V20.2C14.5763 20.66 13.6363 21.08 12.6563 21.46L11.8763 19.42C14.2563 18.7 16.2563 17.78 17.8763 16.64H12.7763V14.82H19.9763V13.56C17.7563 13.7 15.8163 13.8 14.1563 13.84L13.9963 11.86C15.8763 11.82 18.1363 11.72 20.7563 11.54C23.3963 11.36 25.6363 11.16 27.4963 10.94L27.8563 12.92C26.0363 13.1 24.1163 13.26 22.1363 13.4V14.82H29.1763V16.64H24.2163C25.8563 17.78 27.8363 18.7 30.1563 19.38L29.3163 21.46C28.5763 21.18 27.8163 20.86 27.0763 20.5ZM16.1963 19.84H25.7563C24.2963 19.04 23.0763 18.2 22.1363 17.32V19.3H19.9763V17.2C18.9563 18.16 17.6963 19.04 16.1963 19.84Z" fill="white"/>
</g>
<defs>
<clipPath id="clip0_28763_15138">
<rect width="40" height="40" fill="white"/>
</clipPath>
</defs>
</svg>
