<svg width="40" height="40" viewBox="0 0 40 40" fill="none" xmlns="http://www.w3.org/2000/svg">
<g clip-path="url(#clip0_28763_15127)">
<path d="M9.6 0H30.4C36.8 0 40 3.2 40 9.6V30.4C40 36.8 36.8 40 30.4 40H9.6C3.2 40 0 36.8 0 30.4V9.6C0 3.2 3.2 0 9.6 0Z" fill="#FEB302"/>
<path d="M11.0372 14.9004C11.0372 12.415 13.076 10.4004 15.5912 10.4004C18.1076 10.4004 20.1464 12.415 20.1464 14.9004C20.1464 17.3857 18.1064 19.4004 15.5912 19.4004C13.076 19.4004 11.0372 17.3857 11.0372 14.9004ZM17.2976 27.3102V26.9992C17.2976 24.705 18.4832 22.6892 20.2712 21.501C19.4635 21.1066 18.5778 20.9014 17.6804 20.9008H13.8836C10.634 20.9008 8 23.5023 8 26.7124V27.0875C8 28.4004 10.634 28.4004 13.8836 28.4004H17.5136C17.3659 28.0565 17.2923 27.6849 17.2976 27.3102ZM25.3832 13.4581C23.2964 13.4581 21.6032 15.1303 21.6032 17.1933C21.6032 19.2564 23.2964 20.9286 25.3832 20.9286C27.4712 20.9286 29.1632 19.2564 29.1632 17.1933C29.1632 15.1303 27.4724 13.4581 25.3832 13.4581ZM25.3832 13.4581C23.2964 13.4581 21.6032 15.1303 21.6032 17.1933C21.6032 19.2564 23.2964 20.9286 25.3832 20.9286C27.4712 20.9286 29.1632 19.2564 29.1632 17.1933C29.1632 15.1303 27.4724 13.4581 25.3832 13.4581ZM23.9672 22.1749C21.2696 22.1749 19.0832 24.3348 19.0832 26.9992V27.3102C19.0832 28.3992 21.2696 28.3992 23.9672 28.3992H27.1184C29.8148 28.3992 32 28.3593 32 27.3102V26.9992C32 24.3348 29.8148 22.1749 27.1184 22.1749H23.9672Z" fill="white"/>
</g>
<defs>
<clipPath id="clip0_28763_15127">
<rect width="40" height="40" fill="white"/>
</clipPath>
</defs>
</svg>
