<svg width="40" height="40" viewBox="0 0 40 40" fill="none" xmlns="http://www.w3.org/2000/svg">
<g clip-path="url(#clip0_28763_15135)">
<path d="M9.6 0H30.4C36.8 0 40 3.2 40 9.6V30.4C40 36.8 36.8 40 30.4 40H9.6C3.2 40 0 36.8 0 30.4V9.6C0 3.2 3.2 0 9.6 0Z" fill="#30D758"/>
<path d="M14.9563 11.66H27.1163V26.1C27.0363 28.36 26.6163 28.7 24.1963 28.94L22.7563 29.08L22.0963 26.88L23.6562 26.78C24.8163 26.66 24.8963 26.62 24.8963 25.66V23.34H16.8763C16.6763 24.48 16.3363 25.52 15.8763 26.44C15.4163 27.34 14.7763 28.34 13.9363 29.42L11.9563 28.06C12.8163 27.04 13.4563 26.18 13.8563 25.44C14.2763 24.7 14.5563 23.86 14.7163 22.9C14.8763 21.92 14.9563 20.6 14.9563 18.9V11.66ZM17.1763 16.58H24.8963V13.74H17.1763V16.58ZM17.1163 21.3H24.8963V18.6H17.1763V19.16C17.1763 19.92 17.1563 20.64 17.1163 21.3Z" fill="white"/>
</g>
<defs>
<clipPath id="clip0_28763_15135">
<rect width="40" height="40" fill="white"/>
</clipPath>
</defs>
</svg>
